inDegrees=no
num_controls=7
num_derivatives=13
num_iterations=37
num_multipliers=7
num_parameters=0
num_slacks=7
num_states=26
objective=0.386007
objective_accelerations=0.060442
objective_balance=0.001953
objective_effort=0.020291
objective_height=0.296796
objective_ligament=0.006525
solver_duration=563.049740
status=Solve_Succeeded
success=true
DataType=double
version=3
OpenSimVersion=4.5
endheader
time	/jointset/ground_pelvis/pelvis_tilt/value	/jointset/ground_pelvis/pelvis_tx/value	/jointset/ground_pelvis/pelvis_ty/value	/jointset/hip_l/hip_flexion_l/value	/jointset/hip_l/hip_adduction_l/value	/jointset/hip_l/hip_rotation_l/value	/jointset/back/lumbar_extension/value	/jointset/patellofemoral_l/patellar_flexion_l/value	/jointset/knee_l/knee_flexion_l/value	/jointset/knee_l/knee_adduction_l/value	/jointset/knee_l/knee_rotation_l/value	/jointset/ankle_l/ankle_angle_l/value	/jointset/subtalar_l/subtalar_angle_l/value	/jointset/ground_pelvis/pelvis_tilt/speed	/jointset/ground_pelvis/pelvis_tx/speed	/jointset/ground_pelvis/pelvis_ty/speed	/jointset/hip_l/hip_flexion_l/speed	/jointset/hip_l/hip_adduction_l/speed	/jointset/hip_l/hip_rotation_l/speed	/jointset/back/lumbar_extension/speed	/jointset/patellofemoral_l/patellar_flexion_l/speed	/jointset/knee_l/knee_flexion_l/speed	/jointset/knee_l/knee_adduction_l/speed	/jointset/knee_l/knee_rotation_l/speed	/jointset/ankle_l/ankle_angle_l/speed	/jointset/subtalar_l/subtalar_angle_l/speed	/forceset/tau_hip_flexion_l	/forceset/tau_hip_adduction_l	/forceset/tau_hip_rotation_l	/forceset/tau_knee_flexion_l	/forceset/tau_ankle_angle_l	/forceset/tau_subtalar_angle_l	/forceset/tau_lumbar_extension	lambda_cid13_p0	lambda_cid13_p1	lambda_cid13_p2	lambda_cid13_p3	lambda_cid13_p4	lambda_cid13_p5	lambda_cid14_p0	/jointset/ground_pelvis/pelvis_tilt/accel	/jointset/ground_pelvis/pelvis_tx/accel	/jointset/ground_pelvis/pelvis_ty/accel	/jointset/hip_l/hip_flexion_l/accel	/jointset/hip_l/hip_adduction_l/accel	/jointset/hip_l/hip_rotation_l/accel	/jointset/back/lumbar_extension/accel	/jointset/patellofemoral_l/patellar_flexion_l/accel	/jointset/knee_l/knee_flexion_l/accel	/jointset/knee_l/knee_adduction_l/accel	/jointset/knee_l/knee_rotation_l/accel	/jointset/ankle_l/ankle_angle_l/accel	/jointset/subtalar_l/subtalar_angle_l/accel	gamma_cid13_p0	gamma_cid13_p1	gamma_cid13_p2	gamma_cid13_p3	gamma_cid13_p4	gamma_cid13_p5	gamma_cid14_p0
1	-0.4121042739944176	-0.02157004095009455	0.4143904770786325	2.18165969245106	-0.3061721139051733	0.251007887445279	-0.4361288110054962	1.987325528553521	1.987325528553534	0.1744245279711526	-0.1744154222790386	0.4359755995323453	0.3148583920499695	-0.1313509915577626	7.19245727231467e-05	0.03675166371313745	-0.008217078983282892	-0.01777375234766044	-0.0631992293616974	-0.000568935638468568	-0.1234467343123169	-0.1234467343123175	-0.004426630445452185	0.0007092260301802169	0.004513306179305856	-0.02524856951828163	-0.2122868060109065	0.04952852429558296	-0.05076021210648379	-0.3730951355820164	0.05408637037358447	-0.0232999228255458	0.1901118973533061	-24.67587615874135	31.5304541787437	-24.8295519435405	8.959216545057195	-554.3721395366643	-39.8353545911112	-0.0181055585909204	-0.8429008807688972	-0.3994315491446055	2.415948278121911	-6.063140007606848	-0.7087811854442894	-2.365058634671798	0.04555532416701279	-6.429030734308161	-6.42903073430819	-1.000851047932818	-0.002022997379506999	-0.1576216407018558	-1.258649791150844	-3.890436015801779e-09	-1.421514752561634e-07	-2.029777431849122e-07	-3.671416579674603e-08	-3.286154716272749e-08	-5.82947425655985e-07	4.839859519300966e-08
1.01	-0.4134586314622175	-0.02158894112584107	0.414879187786223	2.181271639081378	-0.3063843970558973	0.2502629222038162	-0.4361324556364125	1.985769395502698	1.985769395502742	0.174325937699088	-0.1744076750116796	0.4360139964596208	0.3145452120298667	-0.1393756725053142	-0.003812830815896288	0.06102985149746405	-0.06963708903779349	-0.02468434006897573	-0.08574954554328376	-0.0001955454782174187	-0.1878135044281443	-0.1878135044281489	-0.0153295279510295	0.0008387663458668288	0.003236050340451414	-0.03733873305133015	-0.2136583895872737	0.04935834155694013	-0.05069175780870864	-0.3727764611569135	0.05367122307894158	-0.02319554186097189	0.1911758813296384	-24.80446362049683	31.4766460892567	-24.78557536707167	8.583939697283407	-555.2495311692539	-39.82121291206354	-0.01813323621310694	-0.7605280059014499	-0.3771279325209088	2.439650756651271	-6.217957256907309	-0.682371620227977	-2.193366570175471	0.02789762179413376	-6.445559620822629	-6.445559620823119	-1.140686941483165	0.02013490750565355	-0.1022902295203793	-1.176823496808839	-2.144429539093672e-08	-2.044065455109166e-07	-3.140252804820544e-07	9.441602850115616e-10	-4.649341475624904e-08	-8.468426467360331e-07	7.564404097425835e-08
1.02	-0.4148888910003658	-0.02164551493523444	0.4156118597172739	2.180262080460625	-0.3066658208947913	0.2492937841084534	-0.4361334330137273	1.983568582856597	1.983568582856668	0.1741171828841395	-0.1743986938688719	0.4360417182936728	0.3141126056019514	-0.1465314056188065	-0.007462802156649482	0.08554390840548079	-0.1325181291936097	-0.03160188998039527	-0.1080338001358129	-3.548492418847312e-05	-0.2523826533680801	-0.2523826533680883	-0.02645953904111469	0.0009560011200687255	0.002378287539866398	-0.04913385108146315	-0.2150299731633869	0.04918815881830273	-0.05062330351066621	-0.3724577867317954	0.05325607578424435	-0.02309116089643291	0.1922398653061636	-24.92778249952468	31.42166992674774	-24.74113178984312	8.209141591411425	-556.132993276443	-39.76054153987179	-0.01818412303630283	-0.6691113139569286	-0.3524747395712268	2.463122102860088	-6.355346027868764	-0.7101736234652746	-2.311846316860434	0.002889402922632762	-6.469506499129956	-6.469506499129948	-1.046273764834432	-0.004484105676507124	-0.07372303304754417	-1.199640690567683	-1.969015246328033e-08	-2.945192338740201e-07	-4.349367410532861e-07	-1.798521839156146e-08	-6.891129193056109e-08	-1.206055105598733e-06	1.076002026109431e-07
1.03	-0.416386224143943	-0.02173728214826568	0.4165908389394776	2.178616432276257	-0.3070163396588633	0.248102989749653	-0.4361335752577289	1.98072110061152	1.980721100611582	0.1737962850226511	-0.1743884955318576	0.4360628421998976	0.3135636374931828	-0.1527652850334342	-0.01083728350355938	0.1102911237186586	-0.196863997983409	-0.03849679457217938	-0.1301036203280911	-1.017205258305139e-05	-0.3171439371739761	-0.3171439371739808	-0.03772458109171636	0.00108409880456366	0.001906197897632743	-0.06060698587275581	-0.2165936779504029	0.04907212426186227	-0.05045649244817494	-0.3720953658082801	0.05288307215087113	-0.0229444166628258	0.1934936578346342	-25.02259392512962	31.33696920547119	-24.68471377937298	7.700087853135668	-557.0888121124849	-39.72573763860855	-0.01824947783743167	-0.5750357140897271	-0.3219389065704225	2.486380978328436	-6.51208245900285	-0.6783111133437951	-2.151311866752031	-0.000228996909816852	-6.483988665637307	-6.483988665636793	-1.167233291526213	0.02136255925579058	-0.02500852521566183	-1.113103009630852	-1.773898910396271e-08	-3.849161836463926e-07	-5.55948853902825e-07	-3.749202262689326e-08	-9.141882226386084e-08	-1.566240189336766e-06	1.39604432776765e-07
1.04	-0.4179407979734791	-0.02186119498963079	0.417818462261374	2.176319750373094	-0.3074356399161225	0.246692144789647	-0.4361339806182221	1.97722509565952	1.977225095659587	0.1733626139673195	-0.1743770350472541	0.4360810338905827	0.3129015474092597	-0.1579795428028507	-0.01389192782342674	0.1352727283442372	-0.2627248729518453	-0.04535818861631779	-0.1520439203739914	-8.810822837109839e-05	-0.3820871947525909	-0.3820871947525921	-0.04901417779643039	0.001208430638788938	0.001791844439222246	-0.07175824611288475	-0.2181573827372588	0.04895608970545796	-0.05028968138574883	-0.3717329448847293	0.05251006851747735	-0.02279767242917156	0.1947474503632204	-25.11246900011724	31.25139740614225	-24.62814889078978	7.187558276918693	-558.0521326019813	-39.64499199354482	-0.01833679712516911	-0.4651869849146517	-0.2885073341625771	2.5099999653404	-6.658347263596972	-0.7034715139362857	-2.285942287584939	-0.01776040655585844	-6.50590125367389	-6.50590125367389	-1.051184695656977	-0.00523727573054402	-0.002175796282463985	-1.13526578033492	-1.413148192707213e-08	-4.646996947920775e-07	-6.611250584334941e-07	-6.071735518956177e-08	-1.124805346772597e-07	-1.865835671947984e-06	1.656395557268527e-07
1.05	-0.4195424675547859	-0.02201398679858662	0.4192969805014199	2.173357362884864	-0.3079231581870366	0.2450628128884588	-0.4361355243601376	1.973078828875834	1.973078828875844	0.1728158873493636	-0.1743642418087196	0.4360995202456545	0.3121296739805606	-0.1621789844599247	-0.01660539130365509	0.1604619790160395	-0.3299701076814506	-0.05212094989684467	-0.173771360349865	-0.0002334128381182131	-0.4471886287032123	-0.4471886287032183	-0.06034454328216286	0.001353138180224841	0.001932831996106526	-0.08255537382507012	-0.2196234648720538	0.0489382719834968	-0.05002054568467095	-0.3713423290861571	0.0522649483416603	-0.02259185911237115	0.1959402880821399	-25.13343663002544	31.12341463950412	-24.55946336597914	6.579151861276667	-558.8568428242118	-39.5949334783142	-0.01844308211024526	-0.371014407235773	-0.2536265024873658	2.528019609519733	-6.790235877917573	-0.6588960620356583	-2.108451965889033	-0.01483138998125015	-6.515673032809045	-6.51567303280982	-1.175879968663148	0.02454349018361902	0.02633160326890394	-1.042596583484569	-1.047221400588241e-08	-5.441515359806786e-07	-7.658063908291987e-07	-8.405889176245953e-08	-1.334970652806617e-07	-2.163537729523988e-06	1.914881440764487e-07
1.06	-0.4211808698829232	-0.02219208537185273	0.421028317646472	2.169715998189275	-0.3084775475961493	0.2432177451648498	-0.4361389043284807	1.968280866039231	1.96828086603921	0.1721554735775558	-0.1743499577505525	0.436120235590568	0.3112516972113769	-0.1653260921621186	-0.0189532806854827	0.1858365093457128	-0.3985203144220134	-0.05873241625437259	-0.1951910848577538	-0.0004553535195723322	-0.5124264053359471	-0.5124264053359577	-0.07175160851314713	0.001506594565777722	0.002237642416793052	-0.09297891421022826	-0.221089547006753	0.04892045426159777	-0.04975140998404614	-0.3709517132875331	0.05201982816584776	-0.0223860457954551	0.1971331258011247	-25.14998354953605	30.99475401989368	-24.49077931014583	5.964021804724185	-559.6721339827525	-39.50076377491485	-0.01856943522832618	-0.25472019393866	-0.2153925144822867	2.547055896914763	-6.919341665789211	-0.6732125293366339	-2.224399193988079	-0.03308762089690895	-6.533169790096758	-6.533169790096723	-1.066524644707403	-0.003487506907276836	0.0305887764784239	-1.060548314929481	-7.015639109511035e-09	-6.217925716535858e-07	-8.714078157033262e-07	-1.068143308713233e-07	-1.536580726570014e-07	-2.43787151617168e-06	2.152905265665331e-07
1.07	-0.4228454291678413	-0.02239175245007205	0.4230142189104229	2.165383047004463	-0.3090971728075283	0.2411599946475909	-0.4361446671354561	1.962829981751215	1.962829981751192	0.1713807858857979	-0.1743340980033225	0.4361444788432411	0.3102713084352897	-0.1673957330761467	-0.02091019500944694	0.211365258382044	-0.4682567943213959	-0.06515745833906871	-0.2163022140145712	-0.0006983229383109357	-0.5777600222136812	-0.5777600222136831	-0.08319020456710491	0.001661529477214497	0.002608234298474533	-0.1030420873901975	-0.2225595636883729	0.04899332886467567	-0.04938191893141781	-0.3704141962499439	0.05175212920851884	-0.02212492921133841	0.1983471971185673	-25.14657561039591	30.82613360342779	-24.40150671830314	5.293548649490717	-560.3234576886545	-39.41615883846855	-0.01871315551229379	-0.1545812366948741	-0.175376127714284	2.558976608914704	-7.02883412382181	-0.6217414519904537	-2.045914456889213	-0.02006886064520099	-6.534941261088653	-6.534941261087504	-1.183055598358578	0.02413122395872789	0.0398599258458535	-0.9704586543859958	-3.569845757012977e-09	-6.993372878841688e-07	-9.770581816667316e-07	-1.295385945831639e-07	-1.737735734787101e-07	-2.710962309684888e-06	2.389840683194094e-07
1.08	-0.4245249839012393	-0.0226088957188045	0.4252560461051256	2.160347124426284	-0.3097799667205506	0.2388928439026937	-0.4361528930882462	1.956725464569527	1.956725464569522	0.1704916065309066	-0.1743168594602297	0.4361723411210501	0.3091920365604332	-0.1683251818524245	-0.022448518788108	0.2370216954963154	-0.5391145930930908	-0.0713661565819496	-0.237071130385815	-0.000947982688189909	-0.6431529840704928	-0.6431529840704863	-0.0946499411257913	0.001782353740231993	0.002961447453473842	-0.1127555339643824	-0.2240295803699324	0.04906620346780508	-0.04901242787889298	-0.3698766792123064	0.0514844302512022	-0.02186381262712447	0.1995612684360404	-25.13941394559962	30.65684502420497	-24.31211477592853	4.613790799202824	-560.9905155341695	-39.29149237307419	-0.01887440987761822	-0.0266817663886253	-0.1316744054215211	2.572593512502981	-7.143605440252398	-0.6299437609737251	-2.155956636873514	-0.03442568712448004	-6.545038785912461	-6.545038785912491	-1.070752745653165	-0.01030963659126378	0.02711303114238544	-0.9906029937726358	2.112674080826711e-10	-7.689392758949949e-07	-1.074833472381647e-06	-1.484206274690149e-07	-1.904313087758614e-07	-2.951545516506761e-06	2.60552840881929e-07
